HIERARCHY
ROOT Hips
{
	OFFSET 0.000000 0.000000 0.000000
	CHANNELS 6 Xposition Yposition Zposition Zrotation Yrotation Xrotation 
	JOINT LHipJoint
	{
		OFFSET 0.000000 0.000000 0.000000
		CHANNELS 3 Zrotation Yrotation Xrotation
		JOINT LeftUpLeg
		{
			OFFSET 1.363060 -1.794630 0.839290
			CHANNELS 3 Zrotation Yrotation Xrotation
			JOINT LeftLeg
			{
				OFFSET 2.448110 -6.726130 0.000000
				CHANNELS 3 Zrotation Yrotation Xrotation
				JOINT LeftFoot
				{
					OFFSET 2.562200 -7.039590 0.000000
					CHANNELS 3 Zrotation Yrotation Xrotation
					JOINT LeftToeBase
					{
						OFFSET 0.157640 -0.433110 2.322550
						CHANNELS 3 Zrotation Yrotation Xrotation
						End Site
						{
							OFFSET 0.000000 0.000000 0.000000
						}
					}
				}
			}
		}
	}
	JOINT RHipJoint
	{
		OFFSET 0.000000 0.000000 0.000000
		CHANNELS 3 Zrotation Yrotation Xrotation
		JOINT RightUpLeg
		{
			OFFSET -1.305520 -1.794630 0.839290
			CHANNELS 3 Zrotation Yrotation Xrotation
			JOINT RightLeg
			{
				OFFSET -2.542530 -6.985550 0.000000
				CHANNELS 3 Zrotation Yrotation Xrotation
				JOINT RightFoot
				{
					OFFSET -2.568260 -7.056230 0.000000
					CHANNELS 3 Zrotation Yrotation Xrotation
					JOINT RightToeBase
					{
						OFFSET -0.164730 -0.452590 2.363150
						CHANNELS 3 Zrotation Yrotation Xrotation
						End Site
						{
							OFFSET 0.000000 0.000000 0.000000
						}
					}
				}
			}
		}
	}
	JOINT LowerBack
	{
		OFFSET 0.000000 0.000000 0.000000
		CHANNELS 3 Zrotation Yrotation Xrotation
		JOINT Spine
		{
			OFFSET 0.028270 2.035590 -0.193380
			CHANNELS 3 Zrotation Yrotation Xrotation
			JOINT Spine1
			{
				OFFSET 0.056720 2.048850 -0.042750
				CHANNELS 3 Zrotation Yrotation Xrotation
				JOINT Neck
				{
					OFFSET 0.000000 0.000000 0.000000
					CHANNELS 3 Zrotation Yrotation Xrotation
					JOINT Neck1
					{
						OFFSET -0.054170 1.746240 0.172020
						CHANNELS 3 Zrotation Yrotation Xrotation
						JOINT Head
						{
							OFFSET 0.104070 1.761360 -0.123970
							CHANNELS 3 Zrotation Yrotation Xrotation
							End Site
							{
								OFFSET 0.000000 0.000000 0.000000
							}
						}
					}
				}
				JOINT LeftShoulder
				{
					OFFSET 0.000000 0.000000 0.000000
					CHANNELS 3 Zrotation Yrotation Xrotation
					JOINT LeftArm
					{
						OFFSET 3.362410 1.200890 -0.311210
						CHANNELS 3 Zrotation Yrotation Xrotation
						JOINT LeftForeArm
						{
							OFFSET 4.983000 -0.000000 -0.000000
							CHANNELS 3 Zrotation Yrotation Xrotation
							JOINT LeftHand
							{
								OFFSET 3.483560 -0.000000 -0.000000
								CHANNELS 3 Zrotation Yrotation Xrotation
								JOINT LeftFingerBase
								{
									OFFSET 0.000000 0.000000 0.000000
									CHANNELS 3 Zrotation Yrotation Xrotation
									JOINT LeftHandIndex1
									{
										OFFSET 0.715260 -0.000000 -0.000000
										CHANNELS 3 Zrotation Yrotation Xrotation
										End Site
										{
											OFFSET 0.000000 0.000000 0.000000
										}
									}
								}
								JOINT LThumb
								{
									OFFSET 0.000000 0.000000 0.000000
									CHANNELS 3 Zrotation Yrotation Xrotation
									End Site
									{
										OFFSET 0.000000 0.000000 0.000000
									}
								}
							}
						}
					}
				}
				JOINT RightShoulder
				{
					OFFSET 0.000000 0.000000 0.000000
					CHANNELS 3 Zrotation Yrotation Xrotation
					JOINT RightArm
					{
						OFFSET -3.136600 1.374050 -0.404650
						CHANNELS 3 Zrotation Yrotation Xrotation
						JOINT RightForeArm
						{
							OFFSET -5.241900 -0.000000 -0.000000
							CHANNELS 3 Zrotation Yrotation Xrotation
							JOINT RightHand
							{
								OFFSET -3.444170 -0.000000 -0.000000
								CHANNELS 3 Zrotation Yrotation Xrotation
								JOINT RightFingerBase
								{
									OFFSET 0.000000 0.000000 0.000000
									CHANNELS 3 Zrotation Yrotation Xrotation
									JOINT RightHandIndex1
									{
										OFFSET -0.622530 -0.000000 -0.000000
										CHANNELS 3 Zrotation Yrotation Xrotation
										End Site
										{
											OFFSET 0.000000 0.000000 0.000000
										}
									}
								}
								JOINT RThumb
								{
									OFFSET 0.000000 0.000000 0.000000
									CHANNELS 3 Zrotation Yrotation Xrotation
									End Site
									{
										OFFSET 0.000000 0.000000 0.000000
									}
								}
							}
						}
					}
				}
			}
		}
	}
}
MOTION
Frames: 9
Frame Time: 0.008333
-3.022353 16.725305 -1.908434 16.660438 74.150855 36.130324 -9.093705 0.878868 3.844988 -13.162356 -3.406325 -46.067237 -3.342709 0.754046 21.204978 -1.163049 -9.102182 4.464615 -1.459100 -0.000000 -30.981300 11.412323 -2.870061 1.026038 -1.292481 -2.001555 -14.192494 0.843196 -2.518791 40.707935 1.423791 22.151264 3.563200 3.373600 -0.000000 -66.258100 -6.048472 -1.251067 -5.935727 -1.770954 -0.987994 -3.998548 -5.711310 -1.112919 0.411672 13.261301 -9.157918 -7.267319 -2.339929 -0.186799 0.118008 0.000000 0.000000 0.000000 -3.793757 13.866280 1.280239 -66.686091 21.542500 -4.595900 -0.729933 -77.087632 -0.020262 13.523086 1.876829 0.219071 -0.211127 0.073531 0.000000 0.000000 0.000000 0.000000 0.000000 0.000000 0.000000 12.281829 -2.808315 -0.267472 65.900508 16.039760 29.908280 -0.002475 88.199171 0.049628 8.459640 4.869389 0.395840 -0.115738 -0.398519 -0.000000 0.000000 0.000000 0.000000 0.000000 0.000000 0.000000 
-2.890889 16.703841 -1.884153 17.331885 73.564805 36.768428 -9.007939 0.963830 3.721228 -13.851625 -3.242326 -46.348354 -3.289813 0.901605 23.108092 -1.069180 -8.394482 3.516575 -1.208600 0.000000 -28.251700 11.620289 -2.842117 1.083754 -2.133374 -2.067610 -15.062351 0.656908 -2.653195 42.594264 1.373052 22.678551 4.449236 3.819500 -0.000000 -65.960900 -6.378705 -1.292761 -5.927217 -1.860930 -1.001341 -4.009550 -5.855863 -1.127045 0.369945 13.254471 -8.813414 -7.123496 -2.423233 -0.194726 0.151751 0.000000 0.000000 0.000000 -4.260578 13.999508 1.327306 -65.850717 20.628949 -4.484898 -0.804125 -75.731284 -0.020313 14.374481 2.155494 0.269556 -0.216280 0.064386 0.000000 0.000000 0.000000 0.000000 0.000000 0.000000 0.000000 12.590302 -2.511789 -0.449863 67.047434 15.744780 28.240380 0.131875 86.497488 0.046607 7.923417 4.950422 0.376152 -0.104870 -0.396075 -0.000000 0.000000 0.000000 0.000000 0.000000 0.000000 0.000000 
-2.765599 16.696825 -1.859998 17.716215 72.896778 37.128321 -8.918812 1.034338 3.616056 -14.376624 -3.169526 -46.347789 -3.247257 0.988106 24.519081 -0.954460 -7.559777 2.424682 -0.943300 0.000000 -26.399300 11.805864 -2.792191 1.141591 -2.882672 -1.967938 -15.958305 0.455855 -2.782642 44.453064 1.308085 22.871759 5.430287 4.279099 -0.000000 -65.131800 -6.649583 -1.301197 -5.908254 -1.941901 -0.985114 -4.016930 -6.000248 -1.110877 0.334736 13.194683 -8.483651 -6.976033 -2.507431 -0.202664 0.186012 0.000000 0.000000 0.000000 -4.745437 14.151050 1.364281 -65.035440 19.470916 -4.277362 -0.892319 -74.151225 -0.019987 15.079419 2.390675 0.315324 -0.218875 0.056079 0.000000 0.000000 0.000000 0.000000 0.000000 0.000000 0.000000 12.861321 -2.241323 -0.651072 68.387114 15.448372 26.418883 0.272647 84.555192 0.041948 7.073204 4.970457 0.336688 -0.088996 -0.392273 -0.000000 0.000000 0.000000 0.000000 0.000000 0.000000 0.000000 
-2.645723 16.704001 -1.836979 17.780864 72.155825 37.162263 -8.837122 1.090879 3.519272 -14.748310 -3.125108 -46.077891 -3.220481 1.019834 25.439779 -0.827511 -6.686563 1.273730 -0.697300 0.000001 -25.444200 11.961305 -2.724890 1.197996 -3.512373 -1.713937 -16.852246 0.244894 -2.904096 46.263903 1.229568 22.667989 6.448806 4.696300 0.000000 -63.843400 -6.845049 -1.275778 -5.869887 -2.009700 -0.940117 -4.018965 -6.140108 -1.065126 0.306367 13.090221 -8.175072 -6.829014 -2.591532 -0.210486 0.219872 0.000000 0.000000 0.000000 -5.231583 14.307458 1.389280 -64.294282 18.118934 -4.018382 -0.992193 -72.396594 -0.019343 15.613654 2.566758 0.351876 -0.218955 0.048922 0.000000 0.000000 0.000000 0.000000 0.000000 0.000000 0.000000 13.101419 -2.003870 -0.860543 69.859190 15.175983 24.474033 0.408682 82.438099 0.035458 5.870053 4.915114 0.276237 -0.068271 -0.387320 -0.000000 0.000000 0.000000 0.000000 0.000000 0.000000 0.000000 
-2.530307 16.724319 -1.815881 17.531530 71.355989 36.860333 -8.771729 1.134325 3.421217 -14.981318 -3.054914 -45.556390 -3.209486 1.004887 25.896956 -0.696199 -5.834982 0.150296 -0.490000 -0.000000 -25.284600 12.082405 -2.645330 1.249762 -4.002860 -1.332680 -17.716908 0.029045 -3.015448 48.008487 1.136902 22.019907 7.447170 5.009999 0.000000 -62.243100 -6.955579 -1.219423 -5.803015 -2.061325 -0.870232 -4.013393 -6.271319 -0.993520 0.286615 12.954624 -7.897165 -6.687717 -2.674308 -0.218032 0.252040 0.000000 0.000000 0.000000 -5.694297 14.458476 1.400687 -63.677971 16.627891 -3.745330 -1.100551 -70.523774 -0.018485 15.964586 2.672806 0.375515 -0.216821 0.043194 0.000000 0.000000 0.000000 0.000000 0.000000 0.000000 0.000000 13.321363 -1.809507 -1.067350 71.392126 14.954155 22.460373 0.528934 80.224014 0.026938 4.276954 4.773504 0.195688 -0.042804 -0.381446 -0.000000 0.000000 0.000000 0.000000 0.000000 0.000000 0.000000 
-2.418334 16.756074 -1.797144 17.004927 70.514256 36.245345 -8.728803 1.166266 3.313979 -15.093303 -2.917642 -44.803366 -3.210368 0.952285 25.935023 -0.567602 -5.039861 -0.861935 -0.328100 -0.000000 -25.756101 12.168515 -2.558130 1.292580 -4.343725 -0.862559 -18.526718 -0.186719 -3.115419 49.668956 1.027895 20.898957 8.369720 5.162800 -0.000000 -60.530200 -6.979137 -1.138851 -5.699844 -2.095240 -0.782609 -3.997997 -6.390695 -0.903051 0.277510 12.804781 -7.660698 -6.557393 -2.754478 -0.225146 0.281201 0.000000 0.000000 0.000000 -6.104727 14.594827 1.397527 -63.229067 15.057354 -3.486001 -1.213180 -68.596882 -0.017543 16.133916 2.703922 0.384346 -0.212973 0.039101 0.000000 0.000000 0.000000 0.000000 0.000000 0.000000 0.000000 13.534012 -1.669674 -1.261479 72.911624 14.802048 20.455790 0.624088 77.996947 0.016235 2.269743 4.537849 0.099231 -0.012733 -0.374776 -0.000000 0.000000 0.000000 0.000000 0.000000 0.000000 0.000000 
-2.308620 16.797173 -1.781119 16.233459 69.651433 35.342969 -8.715070 1.188598 3.193098 -15.095801 -2.678468 -43.855102 -3.216640 0.872785 25.621396 -0.448530 -4.324740 -1.695334 -0.209600 -0.000000 -26.653000 12.218170 -2.468041 1.324152 -4.519747 -0.340801 -19.262270 -0.397680 -3.202117 51.226329 0.898757 19.292741 9.165826 5.109800 0.000000 -58.915400 -6.908676 -1.041396 -5.558946 -2.109049 -0.685611 -3.973759 -6.496187 -0.802209 0.273539 12.652600 -7.463066 -6.435084 -2.830388 -0.231773 0.308481 0.000000 0.000000 0.000000 -6.445411 14.684568 1.380735 -62.973212 13.502736 -3.270778 -1.323674 -66.706061 -0.016633 16.135917 2.666226 0.379174 -0.207946 0.036658 0.000000 0.000000 0.000000 0.000000 0.000000 0.000000 0.000000 13.737890 -1.581504 -1.433866 74.355109 14.706730 18.537739 0.687734 75.841765 0.003392 -0.136725 4.206121 -0.004943 0.021336 -0.367284 0.000000 0.000000 0.000000 0.000000 0.000000 0.000000 0.000000 
-2.200138 16.845199 -1.767541 15.297439 68.788712 34.229255 -8.729759 1.204879 3.057364 -15.014222 -2.330563 -42.739474 -3.222611 0.775505 25.020790 -0.343105 -3.688441 -2.298787 -0.125800 -0.000001 -27.763400 12.236955 -2.377013 1.339856 -4.541589 0.180351 -19.909833 -0.598933 -3.275762 52.664291 0.744865 17.223074 9.786185 4.828300 -0.000000 -57.540501 -6.758728 -0.939909 -5.379709 -2.104448 -0.591090 -3.939351 -6.586027 -0.702851 0.278259 12.517127 -7.316458 -6.325561 -2.900151 -0.237722 0.332627 0.000000 0.000000 0.000000 -6.684726 14.725767 1.351008 -62.928224 12.011756 -3.099702 -1.426871 -64.914764 -0.015890 15.998841 2.568040 0.361902 -0.202394 0.035968 0.000000 0.000000 0.000000 0.000000 0.000000 0.000000 0.000000 13.943274 -1.558582 -1.578893 75.664716 14.668731 16.810634 0.718352 73.831022 -0.011298 -2.894609 3.779673 -0.105242 0.058706 -0.358738 -0.000000 0.000000 0.000000 0.000000 0.000000 0.000000 0.000000 
-2.091985 16.897790 -1.756010 14.258548 67.948945 32.968699 -8.772547 1.218794 2.909213 -14.867515 -1.874036 -41.498709 -3.223234 0.670089 24.210319 -0.254081 -3.128791 -2.650232 -0.067200 0.000000 -28.883300 12.228452 -2.286784 1.337667 -4.416172 0.656482 -20.463927 -0.785551 -3.335970 53.966804 0.561821 14.736103 10.183490 4.319300 -0.000000 -56.443800 -6.539254 -0.846645 -5.168281 -2.082376 -0.510677 -3.896388 -6.659428 -0.616890 0.289192 12.410615 -7.219339 -6.226611 -2.961767 -0.242900 0.354442 0.000000 0.000000 0.000000 -6.806487 14.703853 1.310880 -63.092137 10.646442 -2.969385 -1.517076 -63.295747 -0.015404 15.759537 2.424532 0.336037 -0.196869 0.036984 0.000000 0.000000 0.000000 0.000000 0.000000 0.000000 0.000000 14.147032 -1.599474 -1.693663 76.803916 14.661844 15.358445 0.718548 72.025699 -0.027154 -5.898318 3.267642 -0.187964 0.097941 -0.348887 0.000000 0.000000 0.000000 0.000000 0.000000 0.000000 0.000000 
